<svg id="Layer_2" data-name="Layer 2" xmlns="http://www.w3.org/2000/svg" xmlns:xlink="http://www.w3.org/1999/xlink" viewBox="0 0 420 500"><defs><style>.cls-1,.cls-2,.cls-3,.cls-5,.cls-6{stroke:#014d39;stroke-miterlimit:10;}.cls-1,.cls-2,.cls-5{stroke-width:15px;}.cls-1{fill:url(#New_Gradient_Swatch_1);}.cls-2,.cls-6{fill:none;}.cls-3{fill:#fff;stroke-width:14.17px;}.cls-3,.cls-6{stroke-linecap:round;}.cls-4{fill:#014d39;}.cls-5{fill:url(#linear-gradient);}.cls-6{stroke-width:20px;}</style><linearGradient id="New_Gradient_Swatch_1" x1="29.86" y1="147.81" x2="345.02" y2="462.98" gradientUnits="userSpaceOnUse"><stop offset="0" stop-color="#a7ed86"/><stop offset="0.16" stop-color="#a2eb86"/><stop offset="0.35" stop-color="#93e685"/><stop offset="0.55" stop-color="#7bde85"/><stop offset="0.77" stop-color="#59d383"/><stop offset="0.99" stop-color="#2dc482"/><stop offset="1" stop-color="#2cc482"/></linearGradient><linearGradient id="linear-gradient" x1="240.48" y1="43.09" x2="374.41" y2="177.02" gradientUnits="userSpaceOnUse"><stop offset="0" stop-color="#feea29"/><stop offset="0.95" stop-color="#fdb526"/></linearGradient></defs><g id="Link_Existing" data-name="Link Existing"><path class="cls-1" d="M51.94,485.06V133.47a18.21,18.21,0,0,1,18-18.41h235a18.21,18.21,0,0,1,18,18.41V485.06"/><path class="cls-2" d="M145.94,485.06V394.79a4.54,4.54,0,0,1,4.32-4.73h56.36a4.54,4.54,0,0,1,4.32,4.73v90.27"/><line class="cls-3" x1="17.44" y1="485.06" x2="357.44" y2="485.06"/><rect class="cls-4" x="102.44" y="185.06" width="54.79" height="54.79" rx="5"/><rect class="cls-4" x="197.65" y="185.06" width="54.79" height="54.79" rx="5"/><rect class="cls-4" x="102.44" y="280.27" width="54.79" height="54.79" rx="5"/><rect class="cls-4" x="197.65" y="280.27" width="54.79" height="54.79" rx="5"/><circle class="cls-5" cx="307.44" cy="110.06" r="94.7"/><g id="Chain"><path class="cls-6" d="M298.65,118.85h0a22.38,22.38,0,0,1,0-31.56L314.7,71.24a22.4,22.4,0,0,1,31.56,0h0a22.4,22.4,0,0,1,0,31.56"/><path class="cls-6" d="M316.23,101.27h0a22.37,22.37,0,0,1,0,31.55l-16.05,16.05a22.37,22.37,0,0,1-31.55,0h0a22.37,22.37,0,0,1,0-31.55"/></g></g></svg>